<svg width="24" height="24" viewBox="0 0 24 24" fill="none" xmlns="http://www.w3.org/2000/svg">
<g clip-path="url(#clip0_15_179)">
<path d="M6 0.75C4.62605 0.75 3.63804 0.82313 2.93913 0.914345C1.68946 1.07745 0.89044 2.07169 0.818675 3.25319C0.780145 3.88754 0.75 4.77487 0.75 6C0.75 7.22515 0.780145 8.11245 0.818675 8.7468C0.89044 9.9283 1.68946 10.9226 2.93913 11.0857C3.63804 11.1769 4.62605 11.25 6 11.25C7.37395 11.25 8.36195 11.1769 9.06085 11.0857C10.3105 10.9226 11.1095 9.9283 11.1813 8.7468C11.2198 8.11245 11.25 7.22515 11.25 6C11.25 4.77487 11.2198 3.88754 11.1813 3.25319C11.1095 2.07169 10.3105 1.07745 9.06085 0.914345C8.36195 0.82313 7.37395 0.75 6 0.75Z" fill="#0D0D0D"/>
<path d="M6 23.25C4.62605 23.25 3.63804 23.1768 2.93913 23.0856C1.68946 22.9225 0.89044 21.9283 0.818675 20.7468C0.780145 20.1124 0.75 19.2252 0.75 18C0.75 16.7748 0.780145 15.8875 0.818675 15.2532C0.89044 14.0717 1.68946 13.0774 2.93913 12.9143C3.63804 12.8231 4.62605 12.75 6 12.75C7.37395 12.75 8.36195 12.8231 9.06085 12.9143C10.3105 13.0774 11.1095 14.0717 11.1813 15.2532C11.2198 15.8875 11.25 16.7748 11.25 18C11.25 19.2252 11.2198 20.1124 11.1813 20.7468C11.1095 21.9283 10.3105 22.9225 9.06085 23.0856C8.36195 23.1768 7.37395 23.25 6 23.25Z" fill="#0D0D0D"/>
<path d="M23.25 6C23.25 4.62605 23.1768 3.63804 23.0856 2.93913C22.9225 1.68946 21.9283 0.89044 20.7468 0.818675C20.1124 0.780145 19.2252 0.75 18 0.75C16.7748 0.75 15.8875 0.780145 15.2532 0.818675C14.0717 0.89044 13.0774 1.68946 12.9143 2.93913C12.8231 3.63804 12.75 4.62605 12.75 6C12.75 7.37395 12.8231 8.36195 12.9143 9.06085C13.0774 10.3105 14.0717 11.1095 15.2532 11.1813C15.8875 11.2198 16.7748 11.25 18 11.25C19.2252 11.25 20.1124 11.2198 20.7468 11.1813C21.9283 11.1095 22.9225 10.3105 23.0856 9.06085C23.1768 8.36195 23.25 7.37395 23.25 6Z" fill="#0D0D0D"/>
<path d="M18 12.75C17.7393 12.75 17.5158 12.7649 17.3264 12.7876C16.6807 12.865 16.3262 13.4249 16.3048 14.0036C16.2871 14.4799 16.2683 15.2028 16.2579 16.2579C15.2028 16.2683 14.4799 16.2871 14.0036 16.3048C13.4249 16.3262 12.865 16.6807 12.7876 17.3264C12.7649 17.5158 12.75 17.7393 12.75 18C12.75 18.2607 12.7649 18.4842 12.7876 18.6736C12.865 19.3193 13.4249 19.6738 14.0036 19.6952C14.4799 19.7129 15.2028 19.7317 16.2579 19.7421C16.2683 20.7972 16.2871 21.5201 16.3048 21.9963C16.3262 22.5751 16.6807 23.135 17.3264 23.2124C17.5158 23.2351 17.7393 23.25 18 23.25C18.2607 23.25 18.4842 23.2351 18.6736 23.2124C19.3193 23.135 19.6738 22.5751 19.6952 21.9963C19.7129 21.5201 19.7317 20.7972 19.7421 19.7421C20.7972 19.7317 21.5201 19.7129 21.9963 19.6952C22.5751 19.6738 23.135 19.3193 23.2124 18.6736C23.2351 18.4842 23.25 18.2607 23.25 18C23.25 17.7393 23.2351 17.5158 23.2124 17.3264C23.135 16.6807 22.5751 16.3262 21.9963 16.3048C21.5201 16.2871 20.7972 16.2683 19.7421 16.2579C19.7317 15.2028 19.7129 14.4799 19.6952 14.0036C19.6738 13.4249 19.3193 12.865 18.6736 12.7876C18.4842 12.7649 18.2607 12.75 18 12.75Z" fill="#0D0D0D"/>
</g>
<defs>
<clipPath id="clip0_15_179">
<rect width="24" height="24" fill="white"/>
</clipPath>
</defs>
</svg>
