<svg width="17" height="16" viewBox="0 0 17 16" fill="none" xmlns="http://www.w3.org/2000/svg">
<g clip-path="url(#clip0_15_612)">
<path d="M1.5 1H3.5L3.72222 3M3.72222 3L4.5 10H13.5L15.5 3H3.72222ZM13.5 14C13.5 14.5523 13.0523 15 12.5 15C11.9477 15 11.5 14.5523 11.5 14C11.5 13.4477 11.9477 13 12.5 13C13.0523 13 13.5 13.4477 13.5 14ZM6.5 14C6.5 14.5523 6.05228 15 5.5 15C4.94772 15 4.5 14.5523 4.5 14C4.5 13.4477 4.94772 13 5.5 13C6.05228 13 6.5 13.4477 6.5 14Z" stroke="white" stroke-width="2" stroke-linecap="round" stroke-linejoin="round"/>
</g>
<defs>
<clipPath id="clip0_15_612">
<rect width="16" height="16" fill="white" transform="translate(0.5)"/>
</clipPath>
</defs>
</svg>
