<svg width="24" height="24" viewBox="0 0 24 24" fill="none" xmlns="http://www.w3.org/2000/svg">
<path fill-rule="evenodd" clip-rule="evenodd" d="M12 3.75C9.22355 3.75 7.0256 3.89773 5.55755 4.03916C4.00152 4.18906 2.64693 5.19695 2.20826 6.76165C1.68289 8.6356 1.02831 11.8564 0.81823 16.7148C0.72148 18.9522 2.10498 21.25 4.64999 21.25C4.92749 21.25 5.18865 21.2412 5.43345 21.2257C7.44255 21.0986 8.73825 19.5129 9.28565 17.8445L9.30495 17.7858C9.41135 17.4616 9.61205 17.2805 9.8167 17.2283C10.2831 17.1094 11.0104 16.9834 12 16.9834C12.9896 16.9834 13.7169 17.1094 14.1833 17.2283C14.388 17.2805 14.5887 17.4616 14.6951 17.7858L14.7144 17.8445C15.2618 19.5129 16.5574 21.0986 18.5665 21.2257C18.8113 21.2412 19.0725 21.25 19.35 21.25C21.895 21.25 23.2785 18.9522 23.1817 16.7148C22.9717 11.8564 22.3171 8.63555 21.7917 6.7616C21.3531 5.19695 19.9984 4.18905 18.4424 4.03916C16.9744 3.89773 14.7765 3.75 12 3.75ZM7.5 7C8.0523 7 8.5 7.4477 8.5 8V9.5H10C10.5523 9.5 11 9.9477 11 10.5C11 11.0523 10.5523 11.5 10 11.5H8.5V13C8.5 13.5523 8.0523 14 7.5 14C6.9477 14 6.5 13.5523 6.5 13V11.5H5C4.44772 11.5 4 11.0523 4 10.5C4 9.9477 4.44772 9.5 5 9.5H6.5V8C6.5 7.4477 6.9477 7 7.5 7ZM16.5 11.5C17.0523 11.5 17.5 11.9477 17.5 12.5V13C17.5 13.5523 17.0523 14 16.5 14C15.9477 14 15.5 13.5523 15.5 13V12.5C15.5 11.9477 15.9477 11.5 16.5 11.5ZM14.5 11.5C15.0523 11.5 15.5 11.0523 15.5 10.5C15.5 9.9477 15.0523 9.5 14.5 9.5H14C13.4477 9.5 13 9.9477 13 10.5C13 11.0523 13.4477 11.5 14 11.5H14.5ZM16.5 7C17.0523 7 17.5 7.4477 17.5 8V8.5C17.5 9.0523 17.0523 9.5 16.5 9.5C15.9477 9.5 15.5 9.0523 15.5 8.5V8C15.5 7.4477 15.9477 7 16.5 7ZM19 11.5C19.5523 11.5 20 11.0523 20 10.5C20 9.9477 19.5523 9.5 19 9.5H18.5C17.9477 9.5 17.5 9.9477 17.5 10.5C17.5 11.0523 17.9477 11.5 18.5 11.5H19Z" fill="black"/>
</svg>
