<svg width="24" height="24" viewBox="0 0 24 24" fill="none" xmlns="http://www.w3.org/2000/svg">
<path d="M5.54285 2.75H8.5785L7.14685 9.25H0.671143C0.718483 9.03995 0.796648 8.8342 0.906553 8.63935L3.58312 3.89453C3.98202 3.18739 4.73094 2.75 5.54285 2.75Z" fill="#FF5F3C"/>
<path d="M0.853058 10.75C0.959158 10.9626 1.10031 11.1609 1.27526 11.3358L10.3772 20.4377L7.206 10.75H0.853058Z" fill="#FF5F3C"/>
<path d="M8.7843 10.75L11.9997 20.5726L15.215 10.75H8.7843Z" fill="#FF5F3C"/>
<path d="M16.7933 10.75L13.6216 20.4391L22.7249 11.3358C22.8999 11.1609 23.041 10.9626 23.1471 10.75H16.7933Z" fill="#FF5F3C"/>
<path d="M23.3291 9.25H16.8524L15.4207 2.75H18.4574C19.2693 2.75 20.0182 3.18739 20.4171 3.89453L23.0936 8.63935C23.2035 8.8342 23.2817 9.03995 23.3291 9.25Z" fill="#FF5F3C"/>
<path d="M15.3165 9.25H8.6828L10.1145 2.75H13.8848L15.3165 9.25Z" fill="#FF5F3C"/>
</svg>
