<svg width="24" height="24" viewBox="0 0 24 24" fill="none" xmlns="http://www.w3.org/2000/svg">
<g clip-path="url(#clip0_1_56)">
<path d="M10.4043 21.25H15.5957C15.5749 21.5529 15.5558 21.8098 15.5411 21.9995C15.4987 22.5456 15.0978 23.0182 14.5279 23.1134C14.1721 23.1728 13.5982 23.25 12.9999 23.25C12.4017 23.25 11.8279 23.1728 11.4721 23.1134C10.9022 23.0182 10.5013 22.5456 10.459 21.9996C10.4443 21.8098 10.4251 21.5529 10.4043 21.25Z" fill="#FF5F3C"/>
<path fill-rule="evenodd" clip-rule="evenodd" d="M0.77104 10.6185C0.75812 11.3111 0.75 12.1031 0.75 13C0.75 15.5278 0.81449 17.2227 0.869175 18.2055C0.922255 19.1596 1.61137 19.9855 2.61919 20.1036C3.26969 20.1798 4.21681 20.25 5.5 20.25C6.7832 20.25 7.7303 20.1798 8.3808 20.1036C9.3886 19.9855 10.0778 19.1596 10.1308 18.2055C10.1855 17.2227 10.25 15.5278 10.25 13C10.25 12.1031 10.2419 11.3111 10.2289 10.6185C10.1794 7.9601 8.26975 5.75 5.5 5.75C2.73025 5.75 0.820625 7.9601 0.77104 10.6185ZM4 10.25C3.58578 10.25 3.25 10.5858 3.25 11C3.25 11.4142 3.58578 11.75 4 11.75H7C7.4142 11.75 7.75 11.4142 7.75 11C7.75 10.5858 7.4142 10.25 7 10.25H4Z" fill="#FF5F3C"/>
<path d="M14.5 0.75H16.25C16.426 0.75 16.5875 0.751325 16.7352 0.7536C17.8231 0.77034 18.75 1.58514 18.75 2.75C18.75 3.91486 17.8231 4.72966 16.7352 4.7464C16.5875 4.74867 16.426 4.75 16.25 4.75H15.25V15C15.25 15.4142 15.5858 15.75 16 15.75C16.4142 15.75 16.75 15.4142 16.75 15V5.75H18.5002C21.2699 5.75 23.1796 7.9601 23.2291 10.6185C23.2421 11.3111 23.2502 12.1031 23.2502 13C23.2502 15.5278 23.1857 17.2227 23.131 18.2055C23.0779 19.1596 22.3888 19.9854 21.381 20.1036C20.7305 20.1798 19.7834 20.25 18.5002 20.25H10.5906C11.0576 19.7033 11.3384 19.0063 11.3791 18.275C11.4352 17.2671 11.5002 15.549 11.5002 13C11.5002 12.0955 11.492 11.2957 11.4789 10.5951C11.443 8.6703 10.5923 6.8845 9.16699 5.75H13.75V1.5C13.75 1.29619 13.8313 1.11136 13.9632 0.976185C13.9653 0.974 13.9675 0.97183 13.9696 0.96967C13.9718 0.96751 13.974 0.965365 13.9762 0.963235C14.1113 0.8313 14.2962 0.75 14.5 0.75Z" fill="#FF5F3C"/>
</g>
<defs>
<clipPath id="clip0_1_56">
<rect width="24" height="24" fill="white"/>
</clipPath>
</defs>
</svg>
