<svg width="24" height="25" viewBox="0 0 24 25" fill="none" xmlns="http://www.w3.org/2000/svg">
<rect y="0.5" width="24" height="24" rx="12" fill="#FF7A00"/>
<path d="M9.50064 12.5C9.50064 11.1193 10.6196 9.9998 12.0002 9.9998C13.3809 9.9998 14.5004 11.1193 14.5004 12.5C14.5004 13.8807 13.3809 15.0002 12.0002 15.0002C10.6196 15.0002 9.50064 13.8807 9.50064 12.5ZM8.14908 12.5C8.14908 14.627 9.87324 16.3512 12.0002 16.3512C14.1272 16.3512 15.8514 14.627 15.8514 12.5C15.8514 10.373 14.1272 8.64884 12.0002 8.64884C9.87324 8.64884 8.14908 10.373 8.14908 12.5ZM15.1039 8.49614C15.1038 8.67414 15.1565 8.84817 15.2553 8.99621C15.3542 9.14426 15.4947 9.25967 15.6591 9.32785C15.8235 9.39604 16.0045 9.41393 16.1791 9.37928C16.3537 9.34462 16.5141 9.25897 16.64 9.13315C16.7659 9.00733 16.8517 8.847 16.8865 8.67243C16.9213 8.49787 16.9035 8.3169 16.8355 8.15242C16.7674 7.98794 16.6521 7.84733 16.5042 7.74838C16.3562 7.64943 16.1822 7.59657 16.0042 7.5965H16.0039C15.7653 7.59661 15.5365 7.69142 15.3677 7.8601C15.199 8.02878 15.1041 8.25754 15.1039 8.49614ZM8.97024 18.6048C8.23902 18.5715 7.84158 18.4497 7.57746 18.3468C7.2273 18.2105 6.97746 18.0481 6.71478 17.7858C6.4521 17.5235 6.2895 17.2739 6.15378 16.9237C6.05082 16.6597 5.92902 16.2622 5.89578 15.531C5.85942 14.7404 5.85216 14.5029 5.85216 12.5001C5.85216 10.4972 5.86002 10.2604 5.89578 9.46916C5.92908 8.73794 6.05178 8.34116 6.15378 8.07638C6.2901 7.72622 6.45246 7.47638 6.71478 7.2137C6.9771 6.95102 7.2267 6.78842 7.57746 6.6527C7.84146 6.54974 8.23902 6.42794 8.97024 6.3947C9.7608 6.35834 9.99828 6.35108 12.0002 6.35108C14.0022 6.35108 14.2399 6.35894 15.0311 6.3947C15.7624 6.428 16.1591 6.5507 16.4239 6.6527C16.7741 6.78842 17.0239 6.95138 17.2866 7.2137C17.5493 7.47602 17.7113 7.72622 17.8476 8.07638C17.9506 8.34038 18.0724 8.73794 18.1056 9.46916C18.142 10.2604 18.1492 10.4972 18.1492 12.5001C18.1492 14.5029 18.142 14.7397 18.1056 15.531C18.0723 16.2622 17.9499 16.6596 17.8476 16.9237C17.7113 17.2739 17.5489 17.5237 17.2866 17.7858C17.0243 18.0479 16.7741 18.2105 16.4239 18.3468C16.1599 18.4498 15.7624 18.5716 15.0311 18.6048C14.2406 18.6412 14.0031 18.6484 12.0002 18.6484C9.99738 18.6484 9.76056 18.6412 8.97024 18.6048ZM8.90814 5.04542C8.10972 5.08178 7.56414 5.20838 7.08768 5.39378C6.59424 5.58524 6.17652 5.8421 5.7591 6.25886C5.34168 6.67562 5.08548 7.094 4.89402 7.58744C4.70862 8.0642 4.58202 8.60948 4.54566 9.4079C4.5087 10.2076 4.50024 10.4632 4.50024 12.5C4.50024 14.5368 4.5087 14.7924 4.54566 15.5921C4.58202 16.3906 4.70862 16.9358 4.89402 17.4126C5.08548 17.9057 5.34174 18.3246 5.7591 18.7411C6.17646 19.1577 6.59424 19.4142 7.08768 19.6062C7.56504 19.7916 8.10972 19.9182 8.90814 19.9546C9.70824 19.9909 9.96348 20 12.0002 20C14.037 20 14.2927 19.9915 15.0923 19.9546C15.8908 19.9182 16.436 19.7916 16.9128 19.6062C17.4059 19.4142 17.824 19.1579 18.2414 18.7411C18.6588 18.3244 18.9145 17.9057 19.1065 17.4126C19.2919 16.9358 19.4191 16.3905 19.4548 15.5921C19.4912 14.7918 19.4996 14.5368 19.4996 12.5C19.4996 10.4632 19.4912 10.2076 19.4548 9.4079C19.4185 8.60942 19.2919 8.0639 19.1065 7.58744C18.9145 7.0943 18.6581 6.67628 18.2414 6.25886C17.8246 5.84144 17.4059 5.58524 16.9134 5.39378C16.436 5.20838 15.8908 5.08118 15.0929 5.04542C14.2933 5.00906 14.0376 5 12.0008 5C9.96408 5 9.70824 5.00846 8.90814 5.04542Z" fill="white"/>
</svg>
