<svg width="25" height="25" viewBox="0 0 25 25" fill="none" xmlns="http://www.w3.org/2000/svg">
<g clip-path="url(#clip0_61_102)">
<path d="M0.876404 11.5C0.876404 5.8391 5.4655 1.25 11.1264 1.25C16.6233 1.25 21.1096 5.577 21.365 11.0107C20.1469 10.2135 18.6908 9.75 17.1264 9.75C12.8462 9.75 9.3764 13.2198 9.3764 17.5C9.3764 19.0644 9.8399 20.5205 10.6371 21.7385C8.88625 21.6562 7.24975 21.1345 5.83615 20.281C4.79528 20.6999 3.60046 21.1353 2.50728 21.4387C1.6788 21.6688 0.932204 20.9566 1.14204 20.1163C1.4253 18.9818 1.86125 17.7556 2.29438 16.7048C1.39336 15.1791 0.876404 13.3995 0.876404 11.5Z" fill="#757575"/>
<path d="M17.1264 11.25C20.5782 11.25 23.3764 14.0482 23.3764 17.5C23.3764 18.6504 23.0654 19.7288 22.5228 20.655C22.7233 21.0905 22.9203 21.5838 23.0791 22.1108C23.3324 22.9515 22.5674 23.6776 21.7416 23.4076C21.2409 23.2439 20.7663 23.0511 20.3406 22.8612C19.4013 23.4256 18.3014 23.75 17.1264 23.75C13.6746 23.75 10.8764 20.9518 10.8764 17.5C10.8764 14.0482 13.6746 11.25 17.1264 11.25Z" fill="#757575"/>
</g>
<defs>
<clipPath id="clip0_61_102">
<rect width="24" height="24" fill="white" transform="translate(0.126404 0.5)"/>
</clipPath>
</defs>
</svg>
