<svg width="24" height="24" viewBox="0 0 24 24" fill="none" xmlns="http://www.w3.org/2000/svg">
<path fill-rule="evenodd" clip-rule="evenodd" d="M8.09613 7.74996H8.5H10.9835C10.994 7.74974 11.0046 7.74974 11.0152 7.74996H12.7326C12.7442 7.74969 12.7559 7.74969 12.7675 7.74996H15.5H15.9039L17.6938 4.4258C18.1368 3.60301 17.3096 2.67616 16.4419 3.02323L14.6122 3.75511C14.2408 3.90367 13.8166 3.8166 13.5337 3.53374L12.7071 2.70711C12.3166 2.31658 11.6834 2.31658 11.2929 2.70711L10.4663 3.53374C10.1834 3.8166 9.75918 3.90367 9.38776 3.75511L7.55806 3.02323C6.69041 2.67616 5.86316 3.60301 6.3062 4.4258L8.09613 7.74996ZM16.0769 9.24996H15.5H13.8071L15.2079 13.2522C15.3447 13.6432 15.1387 14.071 14.7478 14.2079C14.3568 14.3447 13.9289 14.1387 13.7921 13.7477L12.2179 9.24996H11.594L9.73006 17.1717C9.63519 17.5749 9.23142 17.8249 8.82822 17.73C8.42502 17.6352 8.17507 17.2314 8.26994 16.8282L10.053 9.24996H8.5H7.92311L4.58321 13.5918C3.88083 14.5049 3.5 15.6246 3.5 16.7766C3.5 19.6614 5.8386 22 8.72341 22H15.2766C18.1614 22 20.5 19.6614 20.5 16.7766C20.5 15.6246 20.1192 14.5049 19.4168 13.5918L16.0769 9.24996Z" fill="#FF5F3C"/>
</svg>
