<svg width="24" height="24" viewBox="0 0 24 24" fill="none" xmlns="http://www.w3.org/2000/svg">
<g clip-path="url(#clip0_102_307)">
<path d="M0.751831 11.2578C0.793601 11.2526 0.835901 11.25 0.878241 11.25H5.78214L7.15554 8.3405C7.60124 7.39625 8.93969 7.3823 9.40494 8.3171L11.8828 13.2954L14.3241 7.35795C14.7274 6.3772 16.0919 6.3125 16.5861 7.25075L18.6929 11.25H23.1564C23.187 11.25 23.2176 11.2513 23.248 11.2541C23.2309 7.94775 23.1018 5.59145 22.978 4.06785C22.8444 2.42393 21.576 1.15552 19.9321 1.02195C18.2963 0.88904 15.7006 0.75 11.9999 0.75C8.29924 0.75 5.70359 0.889035 4.06779 1.02194C2.42387 1.15551 1.15545 2.42392 1.02189 4.06784C0.898046 5.59205 0.768886 7.9495 0.751831 11.2578Z" fill="white"/>
<path d="M23.2393 13.7466C23.2118 13.7488 23.1841 13.7499 23.1564 13.7499H18.5159C17.7728 13.7499 17.0909 13.3379 16.7453 12.6801L15.6598 10.6138L13.1613 16.6729C12.7529 17.6633 11.3694 17.7147 10.8886 16.7573L8.24423 11.4909L7.75093 12.577C7.42648 13.2913 6.71443 13.7499 5.92993 13.7499H0.878332C0.838967 13.7499 0.799642 13.7477 0.760742 13.7432C0.795772 16.5316 0.911007 18.5663 1.02197 19.9321C1.15554 21.576 2.42395 22.8444 4.06787 22.978C5.70368 23.1109 8.29928 23.2499 12 23.2499C15.7007 23.2499 18.2964 23.1109 19.9322 22.978C21.5761 22.8444 22.8445 21.576 22.9781 19.9321C23.089 18.5669 23.2042 16.5332 23.2393 13.7466Z" fill="white"/>
</g>
<defs>
<clipPath id="clip0_102_307">
<rect width="24" height="24" fill="white"/>
</clipPath>
</defs>
</svg>
