<svg width="24" height="24" viewBox="0 0 24 24" fill="none" xmlns="http://www.w3.org/2000/svg">
<path d="M8.7405 1.44678C8.72375 1.04333 8.22305 0.906879 7.98715 1.20642C7.5413 1.77257 7.15875 2.19061 6.68685 2.44035C6.22515 2.68466 5.64945 2.78165 4.79248 2.63813C2.99415 2.33697 1.72749 2.98452 1.04028 4.12502C0.810825 4.50582 0.75 4.94298 0.75 5.3445V14.5001C0.75 14.91 1.08475 15.2599 1.51411 15.234C2.15787 15.1953 3.04823 15.0745 3.91367 14.7488C4.77889 14.4232 5.63775 13.8855 6.1877 13.0017C6.71245 12.1583 6.77945 11.2779 6.83345 10.5687L6.84065 10.4748C6.86945 10.1029 6.89885 9.797 6.97995 9.5458C7.05745 9.3057 7.17765 9.1306 7.38555 9.0086C7.4754 8.9559 7.5239 8.87455 7.54795 8.807C7.57225 8.7387 7.5786 8.66695 7.57215 8.60175C7.56585 8.5378 7.5455 8.46265 7.4986 8.3956C7.44885 8.32445 7.3631 8.2567 7.24345 8.248C6.54275 8.1973 6.01575 8.2458 5.5934 8.3616C5.1679 8.47825 4.86124 8.65985 4.59932 8.85685C4.4651 8.9578 4.3472 9.0574 4.2342 9.1528C3.89776 9.43695 3.60479 9.68435 3.05416 9.8224C3.01242 9.83285 2.97695 9.8249 2.95681 9.81325C2.94739 9.80785 2.94233 9.80235 2.9396 9.7983C2.93723 9.79475 2.93435 9.78905 2.9333 9.7783C2.89175 9.35465 3.08437 8.658 3.45583 7.97255C3.82526 7.29085 4.33583 6.6869 4.86544 6.41475C5.1921 6.2469 5.5343 6.1224 5.89005 5.9929C5.9826 5.95925 6.0761 5.9252 6.17045 5.89C6.6178 5.72315 7.07705 5.53185 7.47895 5.2271C8.3099 4.597 8.82735 3.53784 8.7405 1.44678Z" fill="white"/>
<path fill-rule="evenodd" clip-rule="evenodd" d="M14.1891 8.82069C12.2999 8.69039 10.5908 8.76949 9.76049 8.82604C9.33939 8.85474 8.96069 9.16009 8.91259 9.61179C8.86989 10.0122 8.88379 10.3852 8.91209 10.6755C8.95974 11.1647 9.38184 11.4786 9.83119 11.4902C10.5413 11.5086 11.8105 11.5628 13.1375 11.722C13.1917 11.7285 13.2429 11.7535 13.2824 11.7935L13.5216 12.0353C11.6672 14.2036 10.2064 16.0933 9.74794 16.6936C9.70004 16.7563 9.62674 16.7926 9.54719 16.7926H6.70324C6.25279 16.7926 5.81699 17.104 5.77099 17.5981C5.73349 18.0008 5.75184 18.3728 5.78229 18.6563C5.83079 19.1081 6.20484 19.4163 6.62664 19.4519C8.20144 19.5851 9.42339 19.6369 10.137 19.6571C10.6429 19.6715 11.1452 19.5366 11.57 19.2492C12.1051 18.8874 12.5881 18.5149 12.937 18.2335C13.1096 18.0941 13.2498 17.9767 13.3477 17.8934C14.0257 18.4275 14.5134 18.9515 14.7201 19.1866C14.7529 19.2239 14.7725 19.275 14.7725 19.3328V22.2994C14.7725 22.7481 15.0817 23.1825 15.5743 23.229C15.9704 23.2664 16.3361 23.2482 16.6157 23.2177C17.067 23.1685 17.3729 22.7939 17.4077 22.3734C17.5549 20.5973 17.602 19.2621 17.6171 18.5883C17.625 18.2337 17.5595 17.8795 17.4132 17.5511C17.1108 16.8722 16.7971 16.3137 16.5586 15.9243C16.444 15.7373 16.3467 15.5891 16.2761 15.485L16.7473 15.0085L16.9884 15.2208C17.34 15.5304 17.7828 15.728 18.2578 15.7615C19.956 15.8811 21.5692 15.8047 22.373 15.7493C22.7954 15.7202 23.1743 15.4132 23.2225 14.9609C23.2655 14.5583 23.2519 14.1862 23.2237 13.8971C23.1762 13.4082 22.7532 13.096 22.3048 13.086C21.5496 13.0692 20.1701 13.0174 18.8162 12.8587C18.7467 12.8505 18.6814 12.8127 18.6358 12.7508C18.2575 12.2371 17.0924 10.738 15.3808 9.29914C15.044 9.01599 14.6255 8.85084 14.1891 8.82069Z" fill="white"/>
<path d="M20 11.5C21.5188 11.5 22.75 10.2688 22.75 8.75C22.75 7.23122 21.5188 6 20 6C18.4812 6 17.25 7.23122 17.25 8.75C17.25 10.2688 18.4812 11.5 20 11.5Z" fill="white"/>
</svg>
